<?xml version="1.0" encoding="utf-8"?>
<!-- Generator: Adobe Illustrator 27.5.0, SVG Export Plug-In . SVG Version: 6.00 Build 0)  -->
<svg version="1.1" id="Layer_1" xmlns="http://www.w3.org/2000/svg" xmlns:xlink="http://www.w3.org/1999/xlink" x="0px" y="0px"
	 viewBox="0 0 4000 4000" style="enable-background:new 0 0 4000 4000;" xml:space="preserve">
<g>
	<rect x="0" style="fill-rule:evenodd;clip-rule:evenodd;fill:#FFFFFF;" width="3999.999" height="4000"/>
	<g>
		<defs>
			<path id="SVGID_1_" d="M1560.854,2391.481c0,0,147.851,336.818,191.598,436.815c43.749,99.997,12.62,219.958-153.126,321.873
				c-165.747,101.915-146.008-693.155-146.008-693.155S1446.009,2208.617,1560.854,2391.481"/>
		</defs>
		<clipPath id="SVGID_00000085968523900183271370000012079682932874756541_">
			<use xlink:href="#SVGID_1_"  style="overflow:visible;"/>
		</clipPath>
		
			<linearGradient id="SVGID_00000056385836258222561950000013144089991487489726_" gradientUnits="userSpaceOnUse" x1="1470.4513" y1="2014.2968" x2="1979.7816" y2="4539.293">
			<stop  offset="0" style="stop-color:#0000FF"/>
			<stop  offset="1" style="stop-color:#00FFFF"/>
		</linearGradient>
		
			<rect x="1433.579" y="2208.617" style="clip-path:url(#SVGID_00000085968523900183271370000012079682932874756541_);fill:url(#SVGID_00000056385836258222561950000013144089991487489726_);" width="362.622" height="1043.466"/>
	</g>
	<path style="opacity:0.3;fill-rule:evenodd;clip-rule:evenodd;fill:#020C6A;" d="M1560.854,2391.481l16.749,38.15
		c-25.318,41.844-64.721,91.607-124.895,136.64c-0.477-65.575,0.61-109.257,0.61-109.257S1446.009,2208.617,1560.854,2391.481"/>
	<path style="opacity:0.3;fill-rule:evenodd;clip-rule:evenodd;fill:#020C6A;" d="M1663.359,3104.587
		c-18.619,15.497-39.886,30.733-64.033,45.582c-165.747,101.915-146.008-693.155-146.008-693.155s-0.922-31.508,3.069-63.818
		c21.657-6.742,44.264-6.237,60.865,12.945C1548.345,2539.611,1690.035,2974.851,1663.359,3104.587"/>
	<g>
		<defs>
			<path id="SVGID_00000056403827412401913020000008208430634879141033_" d="M1501.629,2448.329
				c32.39,139.04,184.843,605.646,141.899,713.116c-26.892,67.305-88.882,130.565-212.614,171.718l-32.367-160.337l-25.98-696.08
				C1372.568,2476.747,1457.924,2397.826,1501.629,2448.329"/>
		</defs>
		<clipPath id="SVGID_00000087376783394695073950000011741727991186277551_">
			<use xlink:href="#SVGID_00000056403827412401913020000008208430634879141033_"  style="overflow:visible;"/>
		</clipPath>
		
			<linearGradient id="SVGID_00000106133959472911444820000005336867640195982999_" gradientUnits="userSpaceOnUse" x1="1412.1185" y1="2030.2893" x2="1680.9502" y2="3942.7861">
			<stop  offset="0" style="stop-color:#0000FF"/>
			<stop  offset="1" style="stop-color:#00FFFF"/>
		</linearGradient>
		
			<rect x="1372.568" y="2397.826" style="clip-path:url(#SVGID_00000087376783394695073950000011741727991186277551_);fill:url(#SVGID_00000106133959472911444820000005336867640195982999_);" width="313.905" height="935.338"/>
	</g>
	<path style="opacity:0.3;fill-rule:evenodd;clip-rule:evenodd;fill:#020C6A;" d="M1501.629,2448.329
		c3.752,16.102,9.128,36.643,15.605,60.458c-34.475,36.553-79.947,73.395-139.568,104.523l-5.099-136.563
		C1372.568,2476.747,1457.924,2397.826,1501.629,2448.329"/>
	<path style="opacity:0.3;fill-rule:evenodd;clip-rule:evenodd;fill:#020C6A;" d="M1462.245,3321.759
		c-9.976,3.97-20.408,7.772-31.331,11.405l-32.367-160.337l-24.368-652.856l38.465-72.062c14.623-8.272,31.57-15.353,47.864-16.336
		c10.375,126.955,33.936,423.071,50.546,691.261C1516.988,3218.644,1495.974,3281.28,1462.245,3321.759"/>
	<g>
		<defs>
			<path id="SVGID_00000155105557280563215120000002549210170479561897_" d="M1319.565,2576.044c0,0-44.447,512.415-160.072,812.415
				c0,0,343.748,96.873,321.873-256.251c-21.873-353.126-55.799-754.758-55.799-754.758L1319.565,2576.044z"/>
		</defs>
		<clipPath id="SVGID_00000088125761799594227940000000446475162454718906_">
			<use xlink:href="#SVGID_00000155105557280563215120000002549210170479561897_"  style="overflow:visible;"/>
		</clipPath>
		
			<linearGradient id="SVGID_00000029006510287269604920000004140018420997781176_" gradientUnits="userSpaceOnUse" x1="1177.8317" y1="1838.4471" x2="1446.4971" y2="3750.948">
			<stop  offset="0" style="stop-color:#0000FF"/>
			<stop  offset="1" style="stop-color:#00FFFF"/>
		</linearGradient>
		
			<rect x="1159.493" y="2377.449" style="clip-path:url(#SVGID_00000088125761799594227940000000446475162454718906_);fill:url(#SVGID_00000029006510287269604920000004140018420997781176_);" width="343.748" height="1107.883"/>
	</g>
	<path style="opacity:0.3;fill-rule:evenodd;clip-rule:evenodd;fill:#020C6A;" d="M1319.565,2576.044c0,0-2.14,24.7-6.709,66.407
		c50.551-19.355,93.01-42.817,128.66-68.055c-9.302-118.275-15.949-196.947-15.949-196.947L1319.565,2576.044z"/>
	<g>
		<defs>
			<path id="SVGID_00000039120626775148327870000012832597195235464119_" d="M2035.271,1418.134c0,0-256.253,48.44-320.314,243.752
				c-64.063,195.311,18.741,342.188-121.885,598.441c-30.198,55.03-53.042,104.578-68.822,149.957
				c-22.383,45.927-77.509,123.572-204.684,165.76l-0.018,0.005c5.621-308.158-86.679-637.491,17.234-920.423
				c206.641-562.615,533.286-360.151,514.841-239.06C1851.622,1416.566,1956.311,1384.535,2035.271,1418.134"/>
		</defs>
		<clipPath id="SVGID_00000153702818824218321570000006109459693625685890_">
			<use xlink:href="#SVGID_00000039120626775148327870000012832597195235464119_"  style="overflow:visible;"/>
		</clipPath>
		
			<linearGradient id="SVGID_00000128465932785958640050000018396056798684021926_" gradientUnits="userSpaceOnUse" x1="1332.9772" y1="2886.4187" x2="1865.1455" y2="1027.2457">
			<stop  offset="0" style="stop-color:#FF0000"/>
			<stop  offset="1" style="stop-color:#FFFF00"/>
		</linearGradient>
		
			<rect x="1232.867" y="1093.011" style="clip-path:url(#SVGID_00000153702818824218321570000006109459693625685890_);fill:url(#SVGID_00000128465932785958640050000018396056798684021926_);" width="802.403" height="1483.038"/>
	</g>
	<g>
		<defs>
			<path id="SVGID_00000138544240859869140930000017050021345039214506_" d="M2759.471,1683.756
				c-298.589-265.763-359.246,374.385-965.391,418.327l-206.248,0.005c-105.487,7.644-173.253,89.977-290.311,90.865
				c5.017,62.253,10.904,124.757,15.369,186.987c53.282-0.812,132.482-2.583,225.311-6.425
				c164.184-6.798,371.008-20.07,552.525-46.001C2462.602,2274.386,3058.057,1949.518,2759.471,1683.756"/>
		</defs>
		<clipPath id="SVGID_00000180358572728944059780000016814483908412796078_">
			<use xlink:href="#SVGID_00000138544240859869140930000017050021345039214506_"  style="overflow:visible;"/>
		</clipPath>
		
			<linearGradient id="SVGID_00000171713279943335013510000005396519019052117416_" gradientUnits="userSpaceOnUse" x1="686.5906" y1="3431.585" x2="3842.7529" y2="187.7543">
			<stop  offset="0" style="stop-color:#045304"/>
			<stop  offset="1" style="stop-color:#D7F241"/>
		</linearGradient>
		
			<rect x="1297.521" y="1417.993" style="clip-path:url(#SVGID_00000180358572728944059780000016814483908412796078_);fill:url(#SVGID_00000171713279943335013510000005396519019052117416_);" width="1760.536" height="961.946"/>
	</g>
	<path style="opacity:0.3;fill-rule:evenodd;clip-rule:evenodd;fill:#013B01;" d="M2759.471,1683.756
		c-298.589-265.763-359.246,374.385-965.391,418.327l-206.248,0.005c-105.487,7.644-173.253,89.977-290.311,90.865
		c1.55,19.223,3.18,38.47,4.829,57.732c113.588-1.04,221.925-5.22,324.543-12.662c606.146-43.942,1013.059-201.538,1127.89-496.455
		c6.194-15.907,11.748-31.398,16.752-46.512C2767.672,1691.281,2763.688,1687.511,2759.471,1683.756"/>
	<g>
		<defs>
			<path id="SVGID_00000077320790389124567820000008128977285167752604_" d="M1631.579,2180.211
				c606.146-43.941,1013.059-201.538,1127.891-496.455c137.498-353.126-28.73-509.286-28.73-509.286
				c-28.247,92.962-123.491,17.673-271.275,253.033c-147.785,235.362-515.495,451.385-825.879,508.446
				c-153.025,28.133-249.241,129.438-343.853,141.755c1.899,38.235,4.678,76.697,7.786,115.248
				C1414.583,2192.064,1526.097,2187.859,1631.579,2180.211"/>
		</defs>
		<clipPath id="SVGID_00000001648622038754615730000003369455662860632217_">
			<use xlink:href="#SVGID_00000077320790389124567820000008128977285167752604_"  style="overflow:visible;"/>
		</clipPath>
		
			<linearGradient id="SVGID_00000072970076903445207140000012107981536149418679_" gradientUnits="userSpaceOnUse" x1="262.1582" y1="3565.6707" x2="3418.4832" y2="321.8429">
			<stop  offset="0" style="stop-color:#045304"/>
			<stop  offset="1" style="stop-color:#D7F241"/>
		</linearGradient>
		
			<rect x="1289.735" y="1174.469" style="clip-path:url(#SVGID_00000001648622038754615730000003369455662860632217_);fill:url(#SVGID_00000072970076903445207140000012107981536149418679_);" width="1607.234" height="1018.483"/>
	</g>
	<path style="opacity:0.3;fill-rule:evenodd;clip-rule:evenodd;fill:#013B01;" d="M2740.845,1185.723
		c-6.155-7.545-10.104-11.253-10.104-11.253c-28.247,92.962-123.491,17.673-271.275,253.033
		c-147.785,235.362-515.495,451.385-825.879,508.446c-153.025,28.133-249.241,129.438-343.853,141.755
		c0.77,15.479,1.682,30.988,2.703,46.527c94.507-12.17,230.197-22.908,381.775-50.778
		c310.383-57.062,687.325-185.933,913.379-545.948C2666.11,1402.454,2713.822,1287.911,2740.845,1185.723"/>
	<g>
		<defs>
			<path id="SVGID_00000124882808511515771450000005719475297838528184_" d="M1686.615,1835.786
				c-207.402,95.5-399.427,129.285-399.427,129.285c-0.358,37.247,0.666,74.833,2.547,112.633
				c94.612-12.316,231.452-22.993,384.478-51.127c310.383-57.062,687.325-185.933,913.379-545.948
				c337.498-537.5,106.253-881.253,106.253-881.253c-81.252,343.753-478.13,859.383-746.878,1078.138
				C1866.547,1742.971,1775.178,1795.006,1686.615,1835.786"/>
		</defs>
		<clipPath id="SVGID_00000021082487642464979530000001616107802502915499_">
			<use xlink:href="#SVGID_00000124882808511515771450000005719475297838528184_"  style="overflow:visible;"/>
		</clipPath>
		
			<linearGradient id="SVGID_00000171689485537086170460000001048448678610386317_" gradientUnits="userSpaceOnUse" x1="-303.4029" y1="3814.697" x2="2852.9321" y2="570.8588">
			<stop  offset="0" style="stop-color:#045304"/>
			<stop  offset="1" style="stop-color:#D7F241"/>
		</linearGradient>
		
			<rect x="1286.829" y="599.376" style="clip-path:url(#SVGID_00000021082487642464979530000001616107802502915499_);fill:url(#SVGID_00000171689485537086170460000001048448678610386317_);" width="1638.259" height="1478.328"/>
	</g>
	<path style="opacity:0.3;fill-rule:evenodd;clip-rule:evenodd;fill:#870000;" d="M1538.201,2373.514
		c-27.747,1.148-54.273,2.112-79.256,2.92c-11.461,0.368-22.597,0.708-33.378,1.015c-44.334,1.267-82.625,2.032-112.695,2.49
		c1.345,18.757,2.559,37.488,3.585,56.183c22.9-2.093,51.01-4.65,81.756-7.422c10.2-0.922,20.689-1.867,31.37-2.827
		c7.988-0.717,16.087-1.44,24.25-2.173c21.945-1.96,44.4-3.953,66.6-5.905c1.37-2.583,2.637-5.094,3.817-7.512
		C1528.407,2398.327,1533.056,2386.076,1538.201,2373.514"/>
	<path style="opacity:0.3;fill-rule:evenodd;clip-rule:evenodd;fill:#020C6A;" d="M1538.201,2373.514
		c-5.144,12.562-9.793,24.813-13.952,36.77c-1.18,2.418-2.447,4.928-3.817,7.512c16.948-1.489,33.742-2.952,50.055-4.365
		c-6.113-13.932-9.633-21.95-9.633-21.95c-4.209-6.703-8.258-12.832-12.146-18.407
		C1545.187,2373.221,1541.683,2373.367,1538.201,2373.514"/>
	<path style="opacity:0.3;fill-rule:evenodd;clip-rule:evenodd;fill:#870000;" d="M1287.188,1965.071
		c0,0,192.025-33.785,399.427-129.285c0.659-14.125,1.507-28.241,2.724-42.433c-45.494,26.735-178.444,94.223-400.799,122.035
		C1287.78,1931.876,1287.344,1948.441,1287.188,1965.071"/>
</g>
</svg>
